# xmcd
#
# Track frame offsets:
#	150
#	19338
#	35686
#	51399
#	66688
#	85523
#	107463
#	124791
#	141288
#	160476
#	176824
#	192537
#	207826
#	226661
#	248601
#	265929
#
# Disc length: 3766 seconds
#
# Revision: 0
# Processed by: cddbd v1.5.1PL2 Copyright (c) Steve Scherf et al.
# Submitted via: audiograbber 1.83.01
#
DISCID=e80eb410
DTITLE=Various Artist - KB28222
DYEAR=1900
DGENRE=Karaoke
TTITLE0=McBride, Martina - Blessed
TTITLE1=McBride, Martina - It's My Time
TTITLE2=McBride, Martina - Strangers
TTITLE3=McBride, Martina - Heart Trouble
TTITLE4=Messina, Jo Dee - Bring On The Rain
TTITLE5=Messina, Jo Dee - Burn
TTITLE6=Messina, Jo Dee - Downtime
TTITLE7=Messina, Jo Dee - That's The Way
TTITLE8=McBride, Martina - Blessed (Vocal)
TTITLE9=McBride, Martina - It's My Time (Vocal)
TTITLE10=McBride, Martina - Strangers (Vocal)
TTITLE11=McBride, Martina - Heart Trouble (Vocal)
TTITLE12=Messina, Jo Dee - Bring On The Rain (Vocal)
TTITLE13=Messina, Jo Dee - Burn (Vocal)
TTITLE14=Messina, Jo Dee - Downtime (Vocal)
TTITLE15=Messina, Jo Dee - That's The Way (Vocal)
EXTD=
EXTT0=
EXTT1=
EXTT2=
EXTT3=
EXTT4=
EXTT5=
EXTT6=
EXTT7=
EXTT8=
EXTT9=
EXTT10=
EXTT11=
EXTT12=
EXTT13=
EXTT14=
EXTT15=
PLAYORDER=
